<?xml version="1.0" encoding="utf-8"?>
<!-- Generator: Adobe Illustrator 27.2.0, SVG Export Plug-In . SVG Version: 6.00 Build 0)  -->
<svg version="1.1" id="Layer_1" xmlns="http://www.w3.org/2000/svg" xmlns:xlink="http://www.w3.org/1999/xlink" x="0px" y="0px"
	 viewBox="0 0 260 260" style="enable-background:new 0 0 260 260;" xml:space="preserve">
<style type="text/css">
	.st0{fill:#FFFFFF;}
</style>
<g transform="translate(0.000000,260.000000) scale(0.100000,-0.100000)">
	<path class="st0" d="M1145,2584c-135-19-151-23-265-60c-239-80-450-229-604-429c-71-92-79-104-134-206c-48-90-105-253-125-364
		c-17-88-21-342-7-415c4-25,11-61,14-80c10-66,67-224,112-314c130-258,347-469,606-591c93-43,172-73,217-81c14-3,28-7,32-9
		c4-3,22-7,40-10c19-3,59-10,89-14c104-18,325-10,444,15c462,98,830,428,976,874c79,242,80,539,3,783c-75,242-224,458-434,632
		c-38,32-128,89-199,128c-64,35-234,102-281,111c-13,2-44,9-69,14C1441,2596,1276,2601,1145,2584z M1510,2176
		c265-69,422-230,476-491c3-16,7-75,10-130c4-117-14-193-68-282c-69-114-157-186-338-278c-64-32-124-69-134-82c-17-23-25-68-29-168
		l-2-50h-137l-136-1l-6,27c-7,36,0,154,13,209c28,125,115,249,195,280c14,5,64,14,112,20c99,12,161,34,169,60c3,9,1,30-5,45
		c-7,19-7,31,1,41c6,7,9,21,7,31c-1,10,1,24,6,31c5,8,4,18-3,25c-19,19-12,38,19,48c41,15,38,36-15,93c-25,27-45,52-46,55
		s-2,33-3,67c-2,35-10,76-22,99c-24,50-89,96-151,106c-55,9-213,12-213,4c0-4,7-19,15-35c14-27,14-32,0-53c-14-22-14-26,6-51
		c17-21,19-32,11-54c-7-21-5-35,9-61c16-30,16-36,3-57c-12-17-13-28-5-43c6-11,11-35,10-53l-1-33l-7,30c-4,17-13,40-20,53
		c-8,16-9,27-1,42c9,16,7,26-10,50c-16,23-19,38-14,65c5,30,2,39-17,56c-20,17-21,23-11,39c16,26,15,36-4,65l-16,24l-47-24
		c-96-48-136-120-136-245c0-68,5-84,43-164s42-95,42-165v-77l-41,3c-156,8-253,66-311,185c-27,54-32,70-47,160
		c-34,198,67,388,271,510c71,42,125,62,223,83C1230,2201,1433,2196,1510,2176z M1377,600c50-31,71-114,44-171c-25-53-76-82-137-77
		s-98,30-119,81C1114,558,1260,672,1377,600z"/>
</g>
</svg>
