<?xml version="1.0" encoding="utf-8"?>
<!-- Generator: Adobe Illustrator 28.3.0, SVG Export Plug-In . SVG Version: 6.00 Build 0)  -->
<svg version="1.1" id="Layer_1" xmlns="http://www.w3.org/2000/svg" xmlns:xlink="http://www.w3.org/1999/xlink" x="0px" y="0px"
	 viewBox="0 0 512 512" style="enable-background:new 0 0 512 512;" xml:space="preserve">
<style type="text/css">
	.st0{display:none;}
	.st1{display:inline;fill:#030712;}
	.st2{fill:#FFFFFF;}
</style>
<g id="Layer_2" class="st0">
	<rect class="st1" width="512" height="512"/>
</g>
<path class="st2" d="M413.2,252.3c5.8-5.9,13.1-8.8,22.1-8.8s16.1,2.9,21.4,8.8c5.3,5.9,7.9,15.2,7.9,27.9c0,1.5-0.1,3.5-0.3,5.8
	h-36.1c0,5.4,0.6,9.2,1.9,11.4c1.3,2.1,3.3,3.2,6.2,3.2c4.2,0,7-2.6,8.2-7.7h19.6c-3.7,15.4-13,23.1-28,23.1
	c-10.3,0-18.2-2.7-23.5-8.1c-5.3-5.4-7.9-14.8-7.9-28.2C404.7,267.3,407.5,258.1,413.2,252.3L413.2,252.3z M428.1,275.4h14.3v-1.9
	c0-4.7-0.5-8.2-1.4-10.5c-1-2.4-2.8-3.6-5.6-3.6c-1.2,0-2.2,0.2-3,0.6c-0.8,0.3-1.4,0.9-2,1.7c-0.5,0.9-0.9,1.7-1.2,2.5
	c-0.3,0.7-0.5,1.8-0.7,3.5c-0.1,1.5-0.2,2.7-0.3,3.6C428.1,272,428.1,273.4,428.1,275.4L428.1,275.4z"/>
<path class="st2" d="M400.7,298.3v16h-35.2v-16h5.9v-69.2h-6.5v-16h29.8v85.2H400.7z"/>
<path class="st2" d="M359.2,298.3v16H330v-7.8c-1,2.5-2.9,4.7-5.9,6.5c-2.9,1.8-6.1,2.7-9.5,2.7c-3.3,0-6.1-0.5-8.5-1.6
	c-2.4-1.1-4.6-2.9-6.6-5.5c-1.9-2.7-3.4-6.5-4.5-11.6c-1.1-5-1.6-11.2-1.6-18.5c0-13.2,1.9-22.3,5.6-27.3c3.9-5,9.1-7.5,15.6-7.5
	c7,0,12.2,3.1,15.5,9.4v-24.1h-6.9v-16h30.2v85.2L359.2,298.3z M323.8,298.4c3,0,4.9-1.3,5.6-4c0.9-2.8,1.3-7.6,1.3-14.4
	c0-7-0.5-11.8-1.4-14.4c-0.9-2.7-2.6-4-5.3-4c-2.8,0-4.7,1.3-5.6,4c-0.9,2.6-1.3,7.4-1.3,14.4c0,2.4,0,4.3,0,5.6
	c0.1,1.3,0.2,2.7,0.3,4.5c0.1,1.6,0.3,2.9,0.6,3.8c0.3,0.8,0.7,1.6,1.2,2.5c0.5,0.8,1.1,1.3,1.9,1.7
	C321.8,298.3,322.8,298.4,323.8,298.4L323.8,298.4z"/>
<path class="st2" d="M289.4,244.2v20.7c-7.4-0.3-12.5,0.9-15.3,3.6c-2.8,2.7-4.2,7.8-4.2,15.5v14.3h7.7v16h-36.8v-16h6.1v-37h-6.1
	v-16h27.9l-0.1,11.1c2-3.8,4.7-6.7,8.1-8.8c3.4-2.2,7.1-3.3,11.3-3.3L289.4,244.2z"/>
<path class="st2" d="M203.9,243.5c9.9,0,17.5,3,22.7,9.1c5.3,6,7.9,15.1,7.9,27.3c0,24.1-10.2,36.1-30.6,36.1s-30.6-12-30.6-36.1
	c0-12.1,2.6-21.2,7.9-27.3C186.5,246.5,194.1,243.5,203.9,243.5L203.9,243.5z M198.1,294.6c0.9,2.9,2.8,4.3,5.8,4.3s4.9-1.4,5.6-4.3
	c0.9-3,1.3-8,1.3-15c0-7.2-0.5-12.2-1.4-14.9c-0.9-2.8-2.7-4.2-5.5-4.2c-2.8,0-4.7,1.4-5.6,4.2c-1,2.8-1.4,7.8-1.4,14.9
	C196.8,286.7,197.3,291.7,198.1,294.6L198.1,294.6z"/>
<path class="st2" d="M175.7,213v17.9h-5.8l-16.5,83.3h-27.2l-12.4-53.9l-13,53.9H73.6l-15.3-83.3h-5.8V213h41.3v17.9h-7.4l7.7,51.7
	l16.3-69.6h18.3l14.9,69.6l9.1-51.7h-7.8V213H175.7z"/>
</svg>
